<svg width="427" height="258" viewBox="0 0 427 258" fill="none" xmlns="http://www.w3.org/2000/svg">
<mask id="mask0_6_107" style="mask-type:alpha" maskUnits="userSpaceOnUse" x="0" y="0" width="427" height="258">
<g clip-path="url(#clip0_6_107)">
<path d="M86.2957 215.612C86.2355 222.198 85.1711 228.122 83.1025 233.362C81.034 238.623 78.0818 243.061 74.2661 246.715C70.4504 250.37 65.8916 253.161 60.6098 255.088C55.3281 257.016 49.3836 257.96 42.7964 257.899C36.2093 257.839 30.2848 256.835 25.0432 254.868C19.7815 252.9 15.283 250.069 11.5275 246.354C7.77204 242.639 4.9002 238.141 2.91201 232.86C0.903728 227.6 -0.0602459 221.616 2.47447e-06 214.91C0.0602508 208.203 1.14472 202.561 3.2735 197.32C5.40227 192.059 8.37452 187.622 12.1902 183.967C16.006 180.313 20.5648 177.522 25.8465 175.594C31.1283 173.666 37.0126 172.723 43.4993 172.783C49.986 172.843 55.8502 173.907 61.0918 175.976C66.3535 178.044 70.8521 180.935 74.6075 184.65C78.363 188.365 81.275 192.862 83.3034 198.143C85.3518 203.424 86.3359 209.247 86.2957 215.612ZM43.3186 194.69C38.6995 194.649 35.1248 196.416 32.5743 199.95C30.0238 203.504 28.7184 208.564 28.6581 215.15C28.5979 222.058 29.8229 227.258 32.3132 230.732C34.8035 234.206 38.3581 235.973 42.9771 236.013C47.5962 236.053 51.1709 234.326 53.7214 230.832C56.2719 227.339 57.5773 222.198 57.6376 215.391C57.6978 208.585 56.4728 203.725 53.9825 200.131C51.4922 196.537 47.9376 194.73 43.3186 194.69Z" fill="#006EF4"/>
<path d="M141.041 194.931C138.29 194.931 135.679 195.372 133.209 196.256C130.739 197.139 128.59 198.445 126.783 200.212C124.975 201.979 123.509 204.147 122.425 206.717C121.32 209.308 120.778 212.279 120.778 215.693C120.778 222.5 122.706 227.54 126.542 230.833C130.377 234.126 135.157 235.772 140.861 235.772C144.154 235.772 147.066 235.351 149.597 234.527C152.127 233.704 154.316 232.861 156.184 231.977C158.272 233.523 159.839 235.17 160.883 236.917C161.927 238.684 162.45 240.812 162.45 243.342C162.45 247.739 160.281 251.253 155.943 253.884C151.605 256.514 145.439 257.839 137.426 257.839C130.518 257.839 124.272 256.936 118.729 255.129C113.187 253.322 108.467 250.631 104.571 247.057C100.675 243.483 97.6826 239.105 95.594 233.885C93.5054 228.664 92.4611 222.6 92.4611 215.693C92.4611 208.785 93.646 202.139 95.9957 196.758C98.3454 191.377 101.559 186.939 105.635 183.425C109.692 179.911 114.392 177.281 119.713 175.514C125.035 173.767 130.659 172.884 136.603 172.884C144.516 172.884 150.601 174.309 154.878 177.16C159.156 180.012 161.305 183.686 161.305 188.184C161.305 190.272 160.803 192.22 159.819 194.027C158.835 195.834 157.67 197.4 156.365 198.726C154.497 197.842 152.248 196.999 149.617 196.176C146.986 195.352 144.134 194.931 141.061 194.931H141.041Z" fill="#006EF4"/>
<path d="M200.587 231.254C203.559 234.266 207.033 235.792 210.99 235.812C214.946 235.832 218.983 234.949 223.12 233.182C227.257 231.415 231.153 229.086 234.527 226.375C237.901 223.664 240.431 221.094 242.158 218.685C244.207 219.006 246.175 219.829 248.062 221.154C249.95 222.5 251.336 224.166 252.2 226.174C253.284 228.704 253.525 231.174 252.882 233.583C252.26 236.013 250.914 238.382 248.866 240.692C246.817 243.021 244.146 245.209 240.853 247.278C237.559 249.346 233.804 251.314 229.566 253.141C223.622 255.711 217.737 257.257 211.934 257.799C206.13 258.341 200.647 257.739 195.466 256.032C190.304 254.325 185.565 251.394 181.287 247.278C176.99 243.161 173.395 237.72 170.463 230.973C167.531 224.226 166.205 218.142 166.305 212.42C166.406 206.697 167.571 201.537 169.82 196.898C172.069 192.28 175.142 188.264 179.058 184.831C182.954 181.417 187.272 178.686 192.011 176.638C197.353 174.329 202.575 173.044 207.636 172.763C212.717 172.482 217.456 173.064 221.854 174.51C226.253 175.956 230.149 178.285 233.563 181.477C236.977 184.67 239.688 188.586 241.676 193.224C243.162 196.657 243.323 199.689 242.198 202.32C241.074 204.97 238.905 207.279 235.691 209.267L200.527 231.274L200.587 231.254ZM200.306 195.332C196.47 196.979 193.779 199.529 192.212 202.962C190.646 206.396 190.525 210.331 191.851 214.769L215.729 199.428C215.187 198.465 214.444 197.561 213.48 196.718C212.516 195.874 211.391 195.192 210.086 194.69C208.781 194.168 207.315 193.947 205.668 194.007C204.021 194.067 202.234 194.509 200.326 195.332H200.306Z" fill="#006EF4"/>
<path d="M296.542 172.201C302.467 172.201 307.869 172.803 312.769 174.008C317.649 175.213 321.827 177.06 325.281 179.53C328.735 181.999 331.406 185.132 333.274 188.907C335.141 192.702 336.065 197.159 336.065 202.32V239.206C336.065 242.057 335.262 244.386 333.675 246.193C332.089 248 330.181 249.567 327.992 250.892C320.863 255.169 310.801 257.317 297.848 257.317C292.024 257.317 286.782 256.775 282.123 255.671C277.464 254.566 273.447 252.92 270.093 250.731C266.739 248.542 264.169 245.731 262.361 242.338C260.554 238.945 259.65 234.989 259.65 230.491C259.65 222.921 261.899 217.098 266.398 213.042C270.897 208.986 277.865 206.456 287.304 205.472L308.873 203.163V202.019C308.873 198.846 307.467 196.557 304.676 195.192C301.884 193.826 297.848 193.143 292.566 193.143C288.509 193.143 284.473 193.585 280.456 194.469C276.439 195.352 272.845 196.436 269.672 197.762C268.246 196.778 267.041 195.272 266.057 193.244C265.073 191.216 264.571 189.108 264.571 186.899C264.571 184.048 265.253 181.779 266.619 180.072C267.985 178.365 270.093 176.919 272.965 175.715C276.138 174.51 279.914 173.626 284.252 173.084C288.589 172.542 292.666 172.261 296.522 172.261L296.542 172.201ZM297.868 236.917C299.735 236.917 301.784 236.736 304.053 236.334C306.303 235.953 307.969 235.431 309.074 234.768V221.596L297.225 222.58C294.152 222.801 291.622 223.463 289.654 224.548C287.686 225.652 286.682 227.299 286.682 229.487C286.682 231.676 287.525 233.463 289.232 234.848C290.939 236.214 293.811 236.896 297.868 236.896V236.917Z" fill="#006EF4"/>
<path d="M427 251.273C425.795 251.595 424.068 251.936 421.819 252.257C419.569 252.579 417.119 252.759 414.488 252.759C409.006 252.759 405.05 251.856 402.64 250.049C400.23 248.241 399.025 244.748 399.025 239.587V200.734C399.025 197.34 398 194.83 395.972 193.244C393.944 191.658 391.273 190.855 387.979 190.855C385.79 190.855 383.722 191.136 381.794 191.678C379.866 192.22 378.038 192.943 376.271 193.826V251.293C375.066 251.615 373.339 251.956 371.09 252.277C368.84 252.599 366.39 252.779 363.759 252.779C358.277 252.779 354.32 251.876 351.91 250.069C349.501 248.262 348.296 244.768 348.296 239.607V190.051C348.296 187.08 348.918 184.67 350.183 182.803C351.449 180.935 353.176 179.229 355.365 177.703C359.1 175.072 363.779 172.964 369.443 171.357C375.106 169.771 381.392 168.968 388.301 168.968C400.712 168.968 410.251 171.679 416.959 177.12C423.646 182.562 427 190.152 427 199.93V251.293V251.273Z" fill="#006EF4"/>
<path d="M0 214.91C4.01656 203.625 13.4153 207.32 13.4153 216.476C10.2221 204.749 28.638 198.806 28.638 215.15C28.4573 219.729 28.8188 223.885 30.3852 227.098C32.1525 232.499 36.0285 235.772 42.9571 236.013C49.7852 235.933 54.2637 232.318 56.3724 225.19C57.1958 221.857 57.6175 218.584 57.6175 215.391C58.1999 207.902 68.2212 220.251 70.5307 211.737C72.057 206.135 79.1663 199.569 86.2756 215.612C86.135 223.403 84.8096 230.873 81.1143 237.639C76.5154 245.35 70.6311 250.932 63.2206 254.024C52.7575 258.06 41.8525 259.164 30.3852 256.494C19.7213 253.161 11.2062 248.402 6.94864 240.852C2.83167 235.15 0.100414 227.158 0 214.91Z" fill="#55A1FF"/>
<path d="M1.58655 228.503C6.60724 221.817 12.612 222.52 19.1389 227.098C22.2919 223.162 25.8867 222.66 29.9434 226.054C31.5099 230.31 33.8997 233.563 37.6954 235.089C42.3345 236.696 46.4716 236.294 50.1869 234.166C52.8378 232.459 54.8059 229.949 55.9908 226.455C62.8993 221.696 68.6229 222.218 73.3222 227.278C77.9613 224.347 82.239 222.901 84.8899 227.72C83.0021 235.712 79.2266 241.836 74.2661 246.755C66.3937 253.482 57.497 257.337 47.3954 257.799C35.1047 258.462 24.0592 256.293 15.0219 249.446C8.89668 244.948 3.99648 238.603 1.56647 228.523L1.58655 228.503Z" fill="#9FD2FF"/>
<mask id="mask1_6_107" style="mask-type:alpha" maskUnits="userSpaceOnUse" x="1" y="7" width="428" height="163">
<path d="M72.6542 111.873C71.2283 113.077 69.3807 114.041 67.1314 114.744C64.8821 115.467 62.2714 115.808 59.2991 115.808C55.3428 115.808 52.0693 115.306 49.4987 114.322C46.908 113.338 45.2412 111.632 44.478 109.222C41.4054 99.5639 38.8749 91.7329 36.9068 85.7493C34.9387 79.7656 33.3923 74.5249 32.2878 70.0271H31.4644C31.1431 76.5127 30.882 82.396 30.7213 87.717C30.5607 93.0381 30.4402 98.2386 30.4 103.279C30.3398 108.339 30.2393 113.439 30.0787 118.599C29.918 123.76 29.6569 129.462 29.3356 135.727C27.9097 136.269 26.042 136.731 23.7325 137.132C21.423 137.514 19.1135 137.715 16.824 137.715C11.9841 137.715 8.22862 136.952 5.53752 135.406C2.84643 133.88 1.50089 131.068 1.50089 127.012C1.50089 123.619 1.66155 118.639 2.00295 112.113C2.32428 105.588 2.74602 98.3591 3.24809 90.4679C3.75016 82.5767 4.25223 74.4446 4.81454 66.0915C5.35678 57.7586 5.85885 50.0682 6.30067 43.0404C7.18431 41.6148 9.09217 40.0687 12.0644 38.4222C15.0367 36.7756 19.1938 35.9524 24.576 35.9524C30.4 35.9524 34.9588 36.856 38.2524 38.6631C41.5459 40.4703 43.9559 43.4219 45.5022 47.478C46.4863 50.1084 47.5507 53.1403 48.7155 56.5338C49.8602 59.9473 51.025 63.4411 52.1697 67.0754C53.3144 70.7098 54.4391 74.304 55.5436 77.8581C56.6482 81.4322 57.6322 84.6449 58.5159 87.4962H59.3393C61.9701 78.2797 64.601 69.3645 67.2519 60.7304C69.8827 52.1163 72.2927 44.9078 74.5018 39.0848C76.1486 38.2013 78.2573 37.4583 80.8479 36.856C83.4185 36.2536 86.3105 35.9524 89.4835 35.9524C94.8657 35.9524 99.2638 36.7556 102.658 38.3418C106.052 39.9281 108.04 42.2172 108.582 45.1688C109.024 47.3575 109.486 50.7509 109.988 55.2888C110.49 59.8469 110.992 64.9872 111.554 70.6897C112.097 76.3923 112.659 82.4362 113.201 88.8013C113.744 95.1665 114.266 101.291 114.768 107.154C115.27 113.037 115.671 118.398 115.993 123.298C116.314 128.177 116.535 131.952 116.656 134.582C114.788 135.687 112.84 136.47 110.811 136.972C108.783 137.474 106.172 137.715 102.979 137.715C98.8019 137.715 95.2874 136.992 92.4357 135.566C89.5839 134.141 88.0376 131.35 87.8167 127.173C87.1539 115.206 86.7523 104.443 86.5916 94.9055C86.4309 85.3678 86.1699 77.336 85.8485 70.8704H85.0252C83.9206 75.1473 82.3341 80.5286 80.2455 87.0143C78.1568 93.4999 75.6264 101.773 72.6742 111.873H72.6542Z" fill="black"/>
<path d="M165.698 53.9233C171.622 53.9233 177.024 54.5257 181.925 55.7305C186.805 56.9352 190.982 58.7825 194.436 61.2523C197.89 63.7221 200.561 66.8545 202.429 70.6294C204.297 74.4244 205.221 78.882 205.221 84.0424V120.928C205.221 123.78 204.417 126.109 202.831 127.916C201.244 129.723 199.336 131.289 197.147 132.614C190.018 136.891 179.956 139.04 167.003 139.04C161.179 139.04 155.937 138.498 151.278 137.393C146.619 136.289 142.602 134.642 139.249 132.454C135.895 130.265 133.324 127.454 131.517 124.061C129.709 120.667 128.806 116.712 128.806 112.214C128.806 104.644 131.055 98.8208 135.553 94.7648C140.052 90.7088 147.021 88.1788 156.46 87.1949L178.028 84.8857V83.7412C178.028 80.5687 176.623 78.2796 173.831 76.9142C171.04 75.5488 167.003 74.8661 161.721 74.8661C157.665 74.8661 153.628 75.3079 149.611 76.1914C145.595 77.0749 142 78.1591 138.827 79.4844C137.401 78.5005 136.196 76.9945 135.212 74.9665C134.228 72.9385 133.726 70.8302 133.726 68.6214C133.726 65.7702 134.409 63.5012 135.774 61.7945C137.14 60.0877 139.249 58.642 142.12 57.4372C145.294 56.2325 149.069 55.349 153.407 54.8068C157.745 54.2647 161.822 53.9836 165.678 53.9836L165.698 53.9233ZM167.023 118.639C168.891 118.639 170.939 118.458 173.209 118.057C175.458 117.675 177.125 117.153 178.229 116.491V103.319L166.38 104.303C163.308 104.523 160.777 105.186 158.809 106.27C156.841 107.375 155.837 109.021 155.837 111.21C155.837 113.398 156.681 115.186 158.388 116.571C160.095 117.936 162.966 118.619 167.023 118.619V118.639Z" fill="black"/>
<path d="M271.755 130.305C269.566 131.189 267.116 131.872 264.425 132.374C261.733 132.876 258.741 133.117 255.448 133.117C250.507 133.117 245.808 132.434 241.37 131.069C236.931 129.703 233.035 127.454 229.681 124.322C226.328 121.189 223.677 117.154 221.688 112.214C219.7 107.274 218.716 101.231 218.716 94.1024C218.716 87.5163 219.72 81.7335 221.769 76.7337C223.797 71.7339 226.649 67.5373 230.324 64.1439C233.999 60.7505 238.478 58.2004 243.739 56.4937C249.001 54.7869 254.885 53.9436 261.352 53.9436C264.425 53.9436 267.437 54.1645 270.409 54.6062C273.382 55.048 276.153 55.6504 278.724 56.4134C281.294 57.1764 283.644 57.9996 285.712 58.8831C287.801 59.7666 289.548 60.6903 290.974 61.6742C293.163 63.2203 294.89 64.9471 296.155 66.8546C297.421 68.7823 298.043 71.2119 298.043 74.1836V135.265C298.043 141.088 296.979 146.108 294.83 150.325C292.681 154.541 289.729 158.055 285.933 160.866C282.138 163.657 277.699 165.726 272.598 167.051C267.497 168.376 262.035 169.019 256.211 169.019C250.387 169.019 245.065 168.557 240.566 167.613C236.068 166.669 232.493 165.324 229.862 163.577C225.906 160.947 223.938 157.212 223.938 152.373C223.938 149.843 224.46 147.534 225.504 145.465C226.548 143.377 227.733 141.851 229.039 140.847C232.212 142.594 235.827 144.08 239.823 145.285C243.82 146.489 248.037 147.092 252.415 147.092C258.239 147.092 262.898 146.108 266.413 144.12C269.927 142.152 271.674 138.96 271.674 134.562V130.285L271.755 130.305ZM260.729 112.194C262.918 112.194 264.866 111.953 266.573 111.451C268.28 110.949 269.847 110.266 271.273 109.383V77.7778C270.068 77.2357 268.823 76.7739 267.557 76.3723C266.292 75.9908 264.625 75.79 262.537 75.79C257.817 75.79 253.982 77.2558 251.009 80.1472C248.037 83.0587 246.571 87.7573 246.571 94.2228C246.571 101.13 247.917 105.869 250.608 108.379C253.299 110.909 256.673 112.174 260.729 112.174V112.194Z" fill="black"/>
<path d="M316.057 57.5376C317.262 57.2164 318.99 56.875 321.239 56.5537C323.488 56.2325 325.938 56.0518 328.569 56.0518C334.052 56.0518 338.008 56.9553 340.418 58.7625C342.828 60.5696 344.033 64.0634 344.033 69.2238V136.229C342.828 136.55 341.101 136.891 338.851 137.213C336.602 137.534 334.152 137.715 331.521 137.715C326.039 137.715 322.082 136.811 319.672 135.004C317.262 133.197 316.057 129.703 316.057 124.543V57.5376Z" fill="black"/>
<path d="M406.952 75.9705C404.201 75.9705 401.59 76.4122 399.12 77.2957C396.65 78.1792 394.501 79.4844 392.693 81.2514C390.886 83.0184 389.42 85.1869 388.335 87.7571C387.231 90.3473 386.689 93.3191 386.689 96.7326C386.689 103.539 388.616 108.579 392.452 111.872C396.288 115.165 401.068 116.812 406.771 116.812C410.065 116.812 412.977 116.39 415.507 115.567C418.038 114.744 420.227 113.9 422.094 113.017C424.183 114.563 425.75 116.21 426.794 117.956C427.838 119.723 428.36 121.852 428.36 124.382C428.36 128.779 426.191 132.293 421.853 134.924C417.516 137.554 411.35 138.879 403.337 138.879C396.429 138.879 390.183 137.976 384.64 136.168C379.097 134.361 374.378 131.671 370.482 128.097C366.586 124.522 363.593 120.145 361.505 114.925C359.416 109.704 358.372 103.64 358.372 96.7326C358.372 89.8253 359.557 83.179 361.906 77.7977C364.256 72.4164 367.469 67.9789 371.546 64.465C375.603 60.9511 380.302 58.3207 385.624 56.5537C390.946 54.8068 396.569 53.9233 402.514 53.9233C410.426 53.9233 416.511 55.349 420.789 58.2002C425.067 61.0515 427.216 64.726 427.216 69.2238C427.216 71.3121 426.714 73.2598 425.729 75.0669C424.745 76.8741 423.581 78.4403 422.275 79.7655C420.408 78.882 418.158 78.0387 415.527 77.2154C412.897 76.3922 410.045 75.9705 406.972 75.9705H406.952Z" fill="black"/>
<path d="M328.81 7.5C325.376 21.5154 319.351 28.6837 311.579 31.1736C321.098 33.2618 326.259 40.9121 328.81 51.8754V7.5Z" fill="black"/>
<path d="M328.81 7.56018C332.244 21.5756 338.269 28.7439 346.041 31.2338C336.522 33.322 331.361 40.9723 328.81 51.9356V7.56018Z" fill="black"/>
</mask>
<g mask="url(#mask1_6_107)">
<rect x="-41.2742" y="-6.75" width="520.055" height="187.5" fill="white"/>
</g>
</g>
</mask>
<g mask="url(#mask0_6_107)">
<rect x="-20" y="-59" width="529" height="396" fill="#1B1C1E"/>
</g>
<defs>
<clipPath id="clip0_6_107">
<rect width="427" height="258" fill="white"/>
</clipPath>
</defs>
</svg>
