<svg width="107" height="66" viewBox="0 0 107 66" fill="none" xmlns="http://www.w3.org/2000/svg">
<g clip-path="url(#clip0_11_225)">
<path d="M21.6245 55.0574C21.6094 56.7167 21.3427 58.209 20.8243 59.5293C20.306 60.8547 19.5662 61.9727 18.6101 62.8934C17.6539 63.8141 16.5115 64.5173 15.188 65.0029C13.8645 65.4886 12.3749 65.7263 10.7242 65.7112C9.07357 65.696 7.58899 65.443 6.27552 64.9473C4.95702 64.4515 3.82975 63.7382 2.88868 62.8024C1.94761 61.8665 1.22797 60.7333 0.729761 59.4029C0.226516 58.0775 -0.0150418 56.57 5.55803e-05 54.8803C0.0151529 53.1907 0.286905 51.7692 0.820345 50.4489C1.35379 49.1235 2.09859 48.0055 3.05475 47.0848C4.01092 46.1641 5.15329 45.4609 6.47682 44.9753C7.80036 44.4897 9.27487 44.2519 10.9003 44.2671C12.5258 44.2822 13.9953 44.5504 15.3088 45.0714C16.6273 45.5925 17.7546 46.3209 18.6956 47.2568C19.6367 48.1927 20.3664 49.3258 20.8747 50.6563C21.388 51.9867 21.6346 53.4538 21.6245 55.0574ZM10.8551 49.7862C9.69759 49.7761 8.80182 50.2212 8.16269 51.1116C7.52357 52.007 7.19646 53.2818 7.18137 54.9411C7.16627 56.6813 7.47325 57.9915 8.09727 58.8667C8.7213 59.7418 9.61204 60.187 10.7695 60.1971C11.927 60.2072 12.8227 59.7722 13.4619 58.8919C14.101 58.0117 14.4281 56.7167 14.4432 55.0018C14.4583 53.2868 14.1513 52.0626 13.5273 51.1571C12.9033 50.2516 12.0125 49.7963 10.8551 49.7862Z" fill="#006EF4"/>
<path d="M35.3429 49.8469C34.6535 49.8469 33.9993 49.9582 33.3803 50.1808C32.7613 50.4033 32.2228 50.7322 31.7699 51.1773C31.317 51.6225 30.9496 52.1688 30.6779 52.8164C30.4011 53.4689 30.2652 54.2176 30.2652 55.0776C30.2652 56.7926 30.7483 58.0623 31.7095 58.8919C32.6707 59.7216 33.8684 60.1364 35.2976 60.1364C36.123 60.1364 36.8527 60.0302 37.4868 59.8228C38.1208 59.6153 38.6694 59.4029 39.1374 59.1803C39.6608 59.5698 40.0533 59.9846 40.315 60.4247C40.5767 60.8699 40.7075 61.4061 40.7075 62.0435C40.7075 63.1514 40.164 64.0367 39.077 64.6994C37.99 65.3621 36.445 65.696 34.4371 65.696C32.7059 65.696 31.1408 65.4683 29.7519 65.013C28.3629 64.5577 27.1803 63.8799 26.204 62.9794C25.2277 62.079 24.4779 60.9761 23.9545 59.6609C23.4311 58.3456 23.1694 56.8178 23.1694 55.0776C23.1694 53.3374 23.4663 51.663 24.0551 50.3072C24.6439 48.9515 25.4491 47.8335 26.4707 46.9482C27.4873 46.0629 28.6649 45.4002 29.9985 44.9551C31.3321 44.5149 32.7412 44.2924 34.2308 44.2924C36.2135 44.2924 37.7384 44.6515 38.8103 45.3699C39.8822 46.0882 40.4207 47.014 40.4207 48.1471C40.4207 48.6732 40.2949 49.1639 40.0483 49.6192C39.8017 50.0745 39.5098 50.4691 39.1827 50.803C38.7147 50.5804 38.151 50.3679 37.4918 50.1605C36.8325 49.9531 36.1179 49.8469 35.348 49.8469H35.3429Z" fill="#006EF4"/>
<path d="M50.2641 58.9982C51.0089 59.757 51.8795 60.1415 52.8709 60.1465C53.8623 60.1516 54.8738 59.929 55.9105 59.4838C56.9472 59.0386 57.9235 58.4518 58.7689 57.7689C59.6144 57.086 60.2485 56.4384 60.6813 55.8314C61.1946 55.9123 61.6878 56.1197 62.1608 56.4536C62.6339 56.7926 62.9811 57.2124 63.1975 57.7183C63.4692 58.3557 63.5296 58.9779 63.3686 59.585C63.2126 60.1971 62.8754 60.794 62.3621 61.3758C61.8488 61.9626 61.1795 62.514 60.3542 63.0351C59.5288 63.5561 58.5878 64.0519 57.5259 64.5122C56.0363 65.1597 54.5618 65.5493 53.1074 65.6859C51.653 65.8224 50.2792 65.6707 48.9808 65.2407C47.6875 64.8107 46.4998 64.0721 45.4279 63.0351C44.351 61.998 43.4501 60.6271 42.7154 58.9274C41.9807 57.2276 41.6485 55.6948 41.6737 54.2531C41.6989 52.8113 41.9907 51.5112 42.5544 50.3426C43.118 49.1791 43.888 48.1674 44.8693 47.3023C45.8456 46.4423 46.9276 45.7543 48.1152 45.2384C49.4539 44.6566 50.7623 44.3328 52.0305 44.262C53.3037 44.1912 54.4914 44.3379 55.5935 44.7021C56.6956 45.0664 57.6719 45.6532 58.5274 46.4575C59.3829 47.2619 60.0623 48.2483 60.5605 49.4169C60.9329 50.2819 60.9731 51.0458 60.6913 51.7085C60.4095 52.3763 59.866 52.958 59.0608 53.4588L50.249 59.0032L50.2641 58.9982ZM50.1936 49.9481C49.2324 50.3629 48.5581 51.0053 48.1656 51.8704C47.773 52.7354 47.7428 53.727 48.075 54.8449L54.0586 50.98C53.9227 50.7372 53.7365 50.5096 53.4949 50.2971C53.2534 50.0846 52.9715 49.9126 52.6444 49.7862C52.3173 49.6547 51.95 49.599 51.5373 49.6142C51.1246 49.6294 50.6768 49.7406 50.1987 49.9481H50.1936Z" fill="#006EF4"/>
<path d="M74.3092 44.1204C75.7938 44.1204 77.1475 44.2721 78.3754 44.5757C79.5983 44.8792 80.6451 45.3446 81.5106 45.9668C82.3762 46.589 83.0455 47.3782 83.5135 48.3292C83.9816 49.2854 84.2131 50.4084 84.2131 51.7085V61.0014C84.2131 61.7198 84.0118 62.3066 83.6142 62.7619C83.2166 63.2172 82.7386 63.6118 82.19 63.9456C80.4035 65.0232 77.8822 65.5644 74.6363 65.5644C73.1769 65.5644 71.8634 65.4279 70.6959 65.1496C69.5284 64.8714 68.5219 64.4566 67.6815 63.9052C66.841 63.3538 66.1969 62.6455 65.744 61.7906C65.291 60.9357 65.0646 59.9391 65.0646 58.8059C65.0646 56.8988 65.6282 55.4317 66.7555 54.4099C67.8827 53.388 69.629 52.7506 71.9943 52.5027L77.3991 51.921V51.6326C77.3991 50.8333 77.0469 50.2566 76.3473 49.9126C75.6478 49.5686 74.6363 49.3966 73.3128 49.3966C72.2962 49.3966 71.2847 49.5079 70.2782 49.7305C69.2717 49.9531 68.3709 50.2263 67.5758 50.5602C67.2185 50.3123 66.9165 49.9329 66.6699 49.4219C66.4233 48.911 66.2975 48.3798 66.2975 47.8234C66.2975 47.105 66.4686 46.5334 66.8108 46.1034C67.153 45.6734 67.6815 45.3092 68.4011 45.0056C69.1962 44.7021 70.1423 44.4795 71.2293 44.3429C72.3163 44.2064 73.3379 44.1355 74.3042 44.1355L74.3092 44.1204ZM74.6413 60.4247C75.1094 60.4247 75.6227 60.3792 76.1913 60.278C76.755 60.1819 77.1727 60.0504 77.4494 59.8835V56.5649L74.4803 56.8128C73.7103 56.8684 73.0762 57.0354 72.5831 57.3085C72.0899 57.5868 71.8383 58.0016 71.8383 58.553C71.8383 59.1044 72.0496 59.5546 72.4774 59.9037C72.9051 60.2477 73.6248 60.4197 74.6413 60.4197V60.4247Z" fill="#006EF4"/>
<path d="M107 64.0418C106.698 64.1227 106.265 64.2087 105.702 64.2896C105.138 64.3706 104.524 64.4161 103.865 64.4161C102.491 64.4161 101.5 64.1885 100.896 63.7332C100.292 63.2779 99.9898 62.3977 99.9898 61.0976V51.3089C99.9898 50.4539 99.7332 49.8216 99.2249 49.4219C98.7166 49.0223 98.0473 48.82 97.222 48.82C96.6734 48.82 96.1551 48.8908 95.672 49.0274C95.1889 49.1639 94.7309 49.3461 94.288 49.5687V64.0468C93.9861 64.1278 93.5533 64.2138 92.9897 64.2947C92.426 64.3756 91.8121 64.4212 91.1528 64.4212C89.779 64.4212 88.7876 64.1935 88.1837 63.7382C87.5798 63.2829 87.2778 62.4027 87.2778 61.1026V48.6176C87.2778 47.8689 87.4338 47.2619 87.7509 46.7914C88.0679 46.3209 88.5007 45.8909 89.0493 45.5065C89.9853 44.8438 91.1579 44.3126 92.577 43.9079C93.9962 43.5083 95.5713 43.3059 97.3025 43.3059C100.413 43.3059 102.803 43.9888 104.484 45.3598C106.16 46.7307 107 48.6429 107 51.1065V64.0468V64.0418Z" fill="#006EF4"/>
<path d="M0 54.8803C1.00649 52.0373 3.36168 52.9681 3.36168 55.2749C2.56152 52.3206 7.17628 50.8232 7.17628 54.941C7.13099 56.0944 7.22157 57.1416 7.6141 57.951C8.05696 59.3118 9.02822 60.1364 10.7644 60.1971C12.4754 60.1769 13.5977 59.2663 14.1261 57.4704C14.3324 56.6307 14.4381 55.8061 14.4381 55.0017C14.584 53.1148 17.0952 56.226 17.674 54.081C18.0564 52.6697 19.8379 51.0154 21.6194 55.0574C21.5842 57.0202 21.252 58.902 20.3261 60.6068C19.1736 62.5494 17.6991 63.9557 15.8422 64.7348C13.2203 65.7516 10.4876 66.0298 7.6141 65.357C4.94187 64.5173 2.80811 63.3183 1.74123 61.4163C0.709576 59.9796 0.0251623 57.9662 0 54.8803Z" fill="#55A1FF"/>
<path d="M0.397611 58.3051C1.65572 56.6206 3.16043 56.7976 4.79597 57.951C5.58607 56.9595 6.48688 56.833 7.50343 57.688C7.89596 58.7604 8.49483 59.5799 9.44596 59.9644C10.6085 60.3691 11.6451 60.2679 12.5761 59.7317C13.2404 59.3017 13.7336 58.6694 14.0305 57.7891C15.7617 56.5902 17.1959 56.7217 18.3735 57.9965C19.536 57.258 20.6079 56.8937 21.2722 58.1078C20.7992 60.1212 19.8531 61.6641 18.6101 62.9035C16.6373 64.5982 14.408 65.5695 11.8766 65.6859C8.79677 65.8528 6.02892 65.3065 3.76432 63.5814C2.22942 62.4483 1.0015 60.8497 0.392578 58.3102L0.397611 58.3051Z" fill="#9FD2FF"/>
<mask id="mask0_11_225" style="mask-type:alpha" maskUnits="userSpaceOnUse" x="0" y="2" width="108" height="42">
<path d="M18.2061 28.9214C17.8488 29.2249 17.3858 29.4677 16.8222 29.6448C16.2585 29.8269 15.6043 29.9129 14.8595 29.9129C13.8681 29.9129 13.0478 29.7864 12.4037 29.5386C11.7545 29.2907 11.3368 28.8607 11.1455 28.2536C10.3756 25.8204 9.74149 23.8475 9.24831 22.3399C8.75513 20.8324 8.36763 19.5121 8.09085 18.3789H7.88452C7.804 20.0129 7.73858 21.4951 7.69832 22.8357C7.65806 24.1763 7.62786 25.4865 7.6178 26.7562C7.6027 28.031 7.57754 29.316 7.53728 30.6161C7.49702 31.9162 7.4316 33.3529 7.35108 34.9312C6.99377 35.0678 6.52575 35.1841 5.94702 35.2853C5.36829 35.3814 4.78956 35.432 4.21586 35.432C3.00304 35.432 2.06197 35.2398 1.38762 34.8503C0.713273 34.4658 0.376099 33.7576 0.376099 32.7357C0.376099 31.8808 0.416358 30.6262 0.50191 28.9821C0.582429 27.338 0.688111 25.5168 0.813922 23.5288C0.939733 21.5407 1.06554 19.4919 1.20645 17.3874C1.34233 15.288 1.46814 13.3505 1.57885 11.58C1.80028 11.2208 2.27837 10.8313 3.02317 10.4164C3.76797 10.0016 4.80969 9.79422 6.15839 9.79422C7.6178 9.79422 8.76016 10.0219 9.58549 10.4772C10.4108 10.9324 11.0147 11.6761 11.4022 12.6979C11.6488 13.3606 11.9155 14.1245 12.2074 14.9794C12.4942 15.8394 12.7861 16.7197 13.073 17.6353C13.3598 18.5509 13.6416 19.4564 13.9184 20.3519C14.1952 21.2523 14.4418 22.0617 14.6632 22.7801H14.8696C15.5288 20.4581 16.1881 18.212 16.8523 16.0367C17.5116 13.8665 18.1155 12.0504 18.6691 10.5834C19.0817 10.3608 19.6101 10.1736 20.2593 10.0219C20.9035 9.8701 21.6281 9.79422 22.4233 9.79422C23.772 9.79422 24.8741 9.99657 25.7246 10.3962C26.575 10.7959 27.0733 11.3726 27.2091 12.1162C27.3198 12.6676 27.4356 13.5225 27.5614 14.6658C27.6872 15.8141 27.813 17.1092 27.9539 18.5459C28.0898 19.9826 28.2307 21.5052 28.3666 23.1089C28.5025 24.7125 28.6333 26.2554 28.7591 27.7326C28.8849 29.2148 28.9856 30.5655 29.0661 31.7998C29.1466 33.0291 29.202 33.9801 29.2322 34.6428C28.7642 34.9211 28.276 35.1184 27.7677 35.2448C27.2595 35.3713 26.6052 35.432 25.8051 35.432C24.7583 35.432 23.8776 35.2499 23.163 34.8907C22.4484 34.5316 22.0609 33.8284 22.0056 32.7762C21.8395 29.7611 21.7389 27.0496 21.6986 24.6467C21.6583 22.2438 21.5929 20.2203 21.5124 18.5914H21.3061C21.0293 19.6689 20.6317 21.0247 20.1083 22.6586C19.585 24.2926 18.9509 26.3768 18.2111 28.9214H18.2061Z" fill="black"/>
<path d="M41.5215 14.3218C43.006 14.3218 44.3598 14.4736 45.5877 14.7771C46.8106 15.0806 47.8573 15.546 48.7229 16.1683C49.5885 16.7905 50.2578 17.5796 50.7258 18.5307C51.1938 19.4868 51.4253 20.6098 51.4253 21.9099V31.2029C51.4253 31.9212 51.224 32.508 50.8265 32.9633C50.4289 33.4186 49.9508 33.8132 49.4023 34.1471C47.6158 35.2246 45.0945 35.7659 41.8486 35.7659C40.3892 35.7659 39.0757 35.6293 37.9082 35.3511C36.7406 35.0728 35.7342 34.658 34.8937 34.1066C34.0533 33.5552 33.4092 32.847 32.9562 31.9921C32.5033 31.1371 32.2769 30.1405 32.2769 29.0074C32.2769 27.1002 32.8405 25.6332 33.9678 24.6113C35.095 23.5895 36.8413 22.9521 39.2065 22.7042L44.6114 22.1224V21.8341C44.6114 21.0348 44.2591 20.4581 43.5596 20.1141C42.8601 19.7701 41.8486 19.5981 40.525 19.5981C39.5085 19.5981 38.497 19.7094 37.4905 19.932C36.484 20.1546 35.5832 20.4277 34.788 20.7616C34.4307 20.5137 34.1288 20.1343 33.8822 19.6234C33.6356 19.1125 33.5098 18.5813 33.5098 18.0248C33.5098 17.3065 33.6809 16.7348 34.0231 16.3048C34.3653 15.8748 34.8937 15.5106 35.6134 15.2071C36.4085 14.9036 37.3546 14.681 38.4416 14.5444C39.5286 14.4078 40.5502 14.337 41.5164 14.337L41.5215 14.3218ZM41.8536 30.6262C42.3216 30.6262 42.8349 30.5807 43.4036 30.4795C43.9672 30.3834 44.3849 30.2518 44.6617 30.0849V26.7664L41.6926 27.0142C40.9226 27.0699 40.2885 27.2368 39.7953 27.51C39.3022 27.7882 39.0505 28.203 39.0505 28.7544C39.0505 29.3059 39.2619 29.7561 39.6897 30.1051C40.1174 30.4491 40.8371 30.6211 41.8536 30.6211V30.6262Z" fill="black"/>
<path d="M68.0978 33.5653C67.5493 33.7879 66.9353 33.9599 66.261 34.0864C65.5866 34.2129 64.8368 34.2736 64.0115 34.2736C62.7735 34.2736 61.5959 34.1016 60.4837 33.7576C59.3716 33.4136 58.3953 32.847 57.5548 32.0578C56.7144 31.2687 56.0501 30.2518 55.5519 29.0074C55.0537 27.7629 54.8071 26.2403 54.8071 24.4444C54.8071 22.7851 55.0587 21.3282 55.5721 20.0686C56.0803 18.8089 56.7949 17.7517 57.7159 16.8967C58.6368 16.0418 59.7591 15.3993 61.0776 14.9693C62.3961 14.5393 63.8706 14.3269 65.491 14.3269C66.261 14.3269 67.0159 14.3825 67.7607 14.4938C68.5055 14.6051 69.1999 14.7569 69.8441 14.9491C70.4882 15.1413 71.077 15.3487 71.5954 15.5713C72.1188 15.7939 72.5566 16.0266 72.9139 16.2745C73.4624 16.664 73.8952 17.0991 74.2123 17.5797C74.5293 18.0653 74.6853 18.6774 74.6853 19.4261V34.8148C74.6853 36.2819 74.4186 37.5466 73.8801 38.6089C73.3416 39.6713 72.6019 40.5565 71.6507 41.2648C70.6996 41.9679 69.5874 42.489 68.3092 42.8229C67.031 43.1567 65.6621 43.3186 64.2027 43.3186C62.7433 43.3186 61.4097 43.2023 60.2824 42.9645C59.1552 42.7267 58.2594 42.3878 57.6001 41.9477C56.6087 41.285 56.1156 40.3441 56.1156 39.1249C56.1156 38.4875 56.2464 37.9058 56.5081 37.3847C56.7698 36.8586 57.0667 36.4741 57.3938 36.2212C58.1889 36.6613 59.0948 37.0356 60.0962 37.3392C61.0977 37.6427 62.1545 37.7945 63.2516 37.7945C64.711 37.7945 65.8785 37.5466 66.7592 37.0458C67.6399 36.55 68.0777 35.7457 68.0777 34.6378V33.5603L68.0978 33.5653ZM65.335 29.0023C65.8836 29.0023 66.3717 28.9416 66.7995 28.8152C67.2272 28.6887 67.6197 28.5167 67.9771 28.2941V20.3316C67.6751 20.195 67.3631 20.0787 67.0461 19.9775C66.729 19.8814 66.3113 19.8308 65.7879 19.8308C64.6053 19.8308 63.6441 20.2001 62.8993 20.9286C62.1545 21.6621 61.7871 22.8458 61.7871 24.4747C61.7871 26.215 62.1243 27.4088 62.7987 28.0412C63.473 28.6786 64.3185 28.9973 65.335 28.9973V29.0023Z" fill="black"/>
<path d="M79.1995 15.2324C79.5014 15.1514 79.9342 15.0654 80.4978 14.9845C81.0615 14.9036 81.6754 14.858 82.3347 14.858C83.7085 14.858 84.6999 15.0857 85.3038 15.541C85.9077 15.9963 86.2097 16.8765 86.2097 18.1766V35.0577C85.9077 35.1386 85.4749 35.2246 84.9113 35.3055C84.3477 35.3865 83.7337 35.432 83.0744 35.432C81.7006 35.432 80.7092 35.2044 80.1053 34.7491C79.5014 34.2938 79.1995 33.4136 79.1995 32.1135V15.2324Z" fill="black"/>
<path d="M101.976 19.8763C101.287 19.8763 100.633 19.9876 100.014 20.2102C99.3946 20.4328 98.8561 20.7616 98.4032 21.2068C97.9503 21.6519 97.5829 22.1983 97.3112 22.8458C97.0344 23.4984 96.8985 24.2471 96.8985 25.1071C96.8985 26.822 97.3816 28.0917 98.3428 28.9214C99.304 29.751 100.502 30.1658 101.931 30.1658C102.756 30.1658 103.486 30.0596 104.12 29.8522C104.754 29.6448 105.303 29.4323 105.771 29.2097C106.294 29.5993 106.687 30.0141 106.948 30.4542C107.21 30.8994 107.341 31.4356 107.341 32.073C107.341 33.1809 106.797 34.0661 105.71 34.7288C104.623 35.3915 103.078 35.7254 101.07 35.7254C99.3392 35.7254 97.7741 35.4978 96.3852 35.0425C94.9962 34.5872 93.8136 33.9093 92.8373 33.0089C91.861 32.1084 91.1112 31.0056 90.5878 29.6903C90.0644 28.375 89.8027 26.8473 89.8027 25.1071C89.8027 23.3669 90.0996 21.6924 90.6884 20.3367C91.2772 18.9809 92.0824 17.8629 93.104 16.9777C94.1206 16.0924 95.2982 15.4297 96.6318 14.9845C97.9654 14.5444 99.3745 14.3218 100.864 14.3218C102.847 14.3218 104.372 14.681 105.444 15.3993C106.516 16.1177 107.054 17.0434 107.054 18.1766C107.054 18.7027 106.928 19.1934 106.682 19.6487C106.435 20.104 106.143 20.4986 105.816 20.8324C105.348 20.6098 104.784 20.3974 104.125 20.19C103.466 19.9826 102.751 19.8763 101.981 19.8763H101.976Z" fill="black"/>
<path d="M82.395 2.62598C81.5344 6.15699 80.0247 7.96297 78.0771 8.59025C80.4625 9.11636 81.7559 11.0438 82.395 13.8058V2.62598Z" fill="black"/>
<path d="M82.395 2.64114C83.2556 6.17216 84.7653 7.97813 86.7129 8.60542C84.3275 9.13153 83.0341 11.0589 82.395 13.821V2.64114Z" fill="black"/>
</mask>
<g mask="url(#mask0_11_225)">
<rect x="-10.3427" y="-0.964111" width="130.318" height="47.2384" fill="#E3EBF1"/>
</g>
</g>
<defs>
<clipPath id="clip0_11_225">
<rect width="107" height="65" fill="white" transform="translate(0 0.73645)"/>
</clipPath>
</defs>
</svg>
