<svg width="33" height="32" viewBox="0 0 33 32" fill="none" xmlns="http://www.w3.org/2000/svg">
<path d="M20.1274 4.95911C20.1617 4.83513 20.2469 4.72897 20.3643 4.66384C20.4817 4.59871 20.6218 4.57991 20.7539 4.61157C22.5794 5.05821 24.245 5.95435 25.5788 7.2075C26.9125 8.46065 27.8662 10.0254 28.3413 11.7404C28.3751 11.8643 28.3553 11.9958 28.2862 12.106C28.2171 12.2163 28.1044 12.2964 27.9727 12.3289C27.9307 12.3401 27.8874 12.3458 27.8438 12.3458C27.7297 12.3455 27.6191 12.3096 27.529 12.2439C27.439 12.1782 27.3747 12.0863 27.3462 11.9825C26.9158 10.435 26.0543 9.02319 24.8503 7.89221C23.6464 6.76123 22.1434 5.95195 20.4961 5.54762C20.3644 5.51515 20.2517 5.43503 20.1826 5.32477C20.1135 5.21451 20.0937 5.08305 20.1274 4.95911ZM19.4649 9.42262C21.3985 9.91063 22.7017 11.1349 23.2212 12.9513C23.2497 13.055 23.314 13.1469 23.404 13.2127C23.4941 13.2784 23.6047 13.3142 23.7188 13.3146C23.7624 13.3146 23.8057 13.3089 23.8477 13.2976C23.9795 13.2644 24.092 13.1834 24.1604 13.0724C24.2288 12.9614 24.2475 12.8294 24.2125 12.7055C23.5937 10.5258 22.0404 9.07266 19.7227 8.48657C19.5939 8.46317 19.4604 8.48678 19.3494 8.5526C19.2385 8.61841 19.1585 8.72148 19.1256 8.84081C19.0927 8.96013 19.1095 9.08674 19.1726 9.19483C19.2356 9.30293 19.3401 9.38439 19.4649 9.42262ZM29.3829 21.377C29.1689 22.9015 28.3713 24.3006 27.1391 25.3129C25.9069 26.3251 24.3244 26.8811 22.6875 26.8771C12.736 26.8771 4.64064 19.2724 4.64064 9.92395C4.63725 8.38688 5.2296 6.90122 6.30705 5.74444C7.3845 4.58767 8.87337 3.83889 10.4956 3.63797C10.8279 3.60002 11.1644 3.66437 11.4544 3.82136C11.7445 3.97836 11.9726 4.21952 12.1043 4.50864L14.8242 10.217C14.9259 10.4383 14.9674 10.68 14.9448 10.9201C14.9223 11.1603 14.8366 11.3914 14.6953 11.5926C14.6837 11.6084 14.6721 11.6241 14.6592 11.6386L11.9264 14.6914C11.8835 14.7583 11.859 14.8341 11.8549 14.9121C11.8509 14.9901 11.8675 15.0678 11.9032 15.1382C12.9138 17.0818 15.0808 19.1016 17.1742 20.051C17.2498 20.084 17.3329 20.0989 17.4161 20.0944C17.4993 20.09 17.58 20.0664 17.6511 20.0256L20.857 17.4681L20.906 17.433C21.1206 17.2999 21.3671 17.2191 21.6232 17.1979C21.8793 17.1768 22.137 17.2159 22.373 17.3119L28.4599 19.8742C28.7646 19.9988 29.0185 20.2121 29.1841 20.4828C29.3496 20.7535 29.418 21.067 29.379 21.377H29.3829ZM28.0487 20.757L21.9592 18.1947C21.8852 18.1655 21.8049 18.1532 21.7249 18.1589C21.6449 18.1646 21.5675 18.1881 21.499 18.2274L18.3047 20.7848L18.257 20.8188C18.0349 20.9581 17.7782 21.041 17.5119 21.0594C17.2455 21.0779 16.9787 21.0313 16.7372 20.9241C14.4169 19.8718 12.1082 17.7175 10.988 15.5633C10.8728 15.3382 10.8213 15.089 10.8384 14.8398C10.8556 14.5906 10.9408 14.3497 11.086 14.1404C11.0976 14.1235 11.1104 14.109 11.1233 14.0932L13.8549 11.0416C13.8958 10.9762 13.9198 10.9027 13.925 10.827C13.9301 10.7513 13.9163 10.6755 13.8845 10.6057L11.1594 4.89735C11.121 4.80885 11.0556 4.73301 10.9714 4.67936C10.8873 4.6257 10.7881 4.59664 10.6863 4.59582C10.6657 4.59462 10.6451 4.59462 10.6245 4.59582C9.25066 4.76682 7.99017 5.40201 7.07868 6.38262C6.16718 7.36323 5.66709 8.62213 5.67189 9.92395C5.67189 18.7372 13.3057 25.9083 22.6875 25.9083C24.0733 25.9128 25.4134 25.443 26.4573 24.5868C27.5012 23.7305 28.1774 22.5465 28.3594 21.2559C28.3713 21.152 28.3471 21.0473 28.2904 20.9574C28.2337 20.8674 28.1476 20.7972 28.0449 20.757H28.0487Z" fill="#F8F8F8"/>
</svg>
