<svg width="256" height="256" viewBox="0 0 256 256" fill="none" xmlns="http://www.w3.org/2000/svg">
<path d="M230.001 200C230.001 201.591 229.368 203.117 228.243 204.243C227.118 205.368 225.592 206 224.001 206C222.409 206 220.883 205.368 219.758 204.243C218.633 203.117 218.001 201.591 218.001 200C217.974 176.139 208.484 153.262 191.611 136.39C174.738 119.517 151.862 110.026 128.001 110H46.4906L84.2406 147.76C84.8301 148.309 85.3029 148.972 85.6308 149.708C85.9588 150.444 86.1351 151.238 86.1493 152.044C86.1635 152.849 86.0153 153.65 85.7136 154.397C85.4118 155.144 84.9626 155.823 84.3929 156.392C83.8231 156.962 83.1445 157.411 82.3974 157.713C81.6503 158.015 80.85 158.163 80.0444 158.149C79.2388 158.135 78.4443 157.958 77.7083 157.63C76.9723 157.302 76.3099 156.829 75.7606 156.24L27.7606 108.24C26.637 107.115 26.0059 105.59 26.0059 104C26.0059 102.41 26.637 100.885 27.7606 99.76L75.7606 51.76C76.898 50.7002 78.4023 50.1232 79.9568 50.1506C81.5112 50.178 82.9942 50.8077 84.0936 51.907C85.1929 53.0063 85.8226 54.4894 85.85 56.0438C85.8774 57.5982 85.3004 59.1026 84.2406 60.24L46.4906 98H128.001C155.043 98.0318 180.969 108.788 200.09 127.91C219.212 147.032 229.969 172.958 230.001 200Z" fill="#F8F8F8"/>
</svg>
