<svg width="256" height="256" viewBox="0 0 256 256" fill="none" xmlns="http://www.w3.org/2000/svg">
<path d="M25.9994 200C25.9994 201.591 26.6316 203.117 27.7568 204.243C28.882 205.368 30.4081 206 31.9994 206C33.5907 206 35.1168 205.368 36.2421 204.243C37.3673 203.117 37.9994 201.591 37.9994 200C38.0259 176.139 47.5165 153.262 64.389 136.39C81.2616 119.517 104.138 110.026 127.999 110H209.509L171.759 147.76C171.17 148.309 170.697 148.972 170.369 149.708C170.041 150.444 169.865 151.238 169.851 152.044C169.836 152.849 169.985 153.65 170.286 154.397C170.588 155.144 171.037 155.823 171.607 156.392C172.177 156.962 172.856 157.411 173.603 157.713C174.35 158.015 175.15 158.163 175.956 158.149C176.761 158.135 177.556 157.958 178.292 157.63C179.028 157.302 179.69 156.829 180.239 156.24L228.239 108.24C229.363 107.115 229.994 105.59 229.994 104C229.994 102.41 229.363 100.885 228.239 99.76L180.239 51.76C179.102 50.7002 177.598 50.1232 176.043 50.1506C174.489 50.178 173.006 50.8077 171.906 51.907C170.807 53.0063 170.177 54.4894 170.15 56.0438C170.123 57.5982 170.7 59.1026 171.759 60.24L209.509 98H127.999C100.957 98.0318 75.0314 108.788 55.9096 127.91C36.7878 147.032 26.0312 172.958 25.9994 200Z" fill="#F8F8F8"/>
</svg>
