<svg width="54" height="56" viewBox="0 0 54 56" fill="none" xmlns="http://www.w3.org/2000/svg">
<mask id="mask0_23_338" style="mask-type:alpha" maskUnits="userSpaceOnUse" x="0" y="1" width="54" height="54">
<path d="M26.6397 1.66211C11.927 1.66211 0 13.5465 0 28.2067C0 42.8669 11.927 54.7513 26.6397 54.7513C41.3525 54.7513 53.2794 42.8669 53.2794 28.2067C53.2794 13.5465 41.3525 1.66211 26.6397 1.66211ZM38.9877 19.7146C38.5868 23.9119 36.8521 34.0977 35.9692 38.7988C35.5958 40.788 34.8604 41.455 34.1487 41.5202C32.6019 41.6621 31.4269 40.5015 29.9285 39.5228C27.5839 37.9914 26.2594 37.038 23.9834 35.5436C21.3532 33.8166 23.0583 32.8677 24.5572 31.3157C24.9495 30.9097 31.7657 24.732 31.8976 24.1716C31.9141 24.1015 31.9299 23.8398 31.7737 23.7023C31.6175 23.5649 31.388 23.6115 31.2221 23.6488C30.987 23.7021 27.2414 26.1689 19.9853 31.0494C18.9222 31.7768 17.9592 32.1313 17.0964 32.1127C16.1452 32.0923 14.3155 31.5769 12.9553 31.1362C11.287 30.5959 9.961 30.3102 10.0765 29.3925C10.1366 28.9144 10.7972 28.4256 12.0583 27.9261C19.8244 24.5547 25.003 22.3319 27.594 21.2579C34.9921 18.1917 36.5294 17.6591 37.5314 17.6413C37.7518 17.6377 38.2445 17.692 38.5637 17.9501C38.776 18.1339 38.9113 18.3905 38.9429 18.6689C38.9969 19.0147 39.012 19.3654 38.9877 19.7146Z" fill="black"/>
</mask>
<g mask="url(#mask0_23_338)">
<rect x="-142" y="-69.1943" width="484" height="438" fill="url(#paint0_linear_23_338)"/>
</g>
<defs>
<linearGradient id="paint0_linear_23_338" x1="100" y1="-69.1943" x2="100" y2="368.806" gradientUnits="userSpaceOnUse">
<stop stop-color="#FAFAFA"/>
<stop offset="1" stop-color="#667481" stop-opacity="0"/>
</linearGradient>
</defs>
</svg>
