<svg width="54" height="61" viewBox="0 0 54 61" fill="none" xmlns="http://www.w3.org/2000/svg">
<mask id="mask0_23_334" style="mask-type:alpha" maskUnits="userSpaceOnUse" x="0" y="0" width="54" height="61">
<g clip-path="url(#clip0_23_334)">
<path d="M3.99217 7.55077C0.24707 11.2959 0.24707 17.3242 0.24707 29.3798V31.511C0.24707 43.5665 0.24707 49.5949 3.99217 53.34C7.73727 57.0851 13.7657 57.0851 25.8212 57.0851H27.9524C40.0079 57.0851 46.0363 57.0851 49.7814 53.34C53.5265 49.5949 53.5265 43.5665 53.5265 31.511V29.3798C53.5265 17.3242 53.5265 11.2959 49.7814 7.55077C46.0363 3.80566 40.0079 3.80566 27.9524 3.80566H25.8212C13.7657 3.80566 7.73727 3.80566 3.99217 7.55077ZM9.23798 20.0115H15.3208C15.5205 30.179 20.0048 34.4857 23.5568 35.3737V20.0115H29.2844V28.7804C32.7919 28.403 36.4771 24.4071 37.7202 20.0115H43.4478C42.9792 22.2911 42.0453 24.4494 40.7045 26.3518C39.3638 28.254 37.6451 29.8592 35.6557 31.067C37.8769 32.1697 39.8388 33.7313 41.4116 35.6486C42.9844 37.5659 44.1324 39.7952 44.7798 42.1891H38.4751C37.8941 40.1097 36.7118 38.2482 35.0767 36.8382C33.4417 35.4283 31.4266 34.5327 29.2844 34.2638V42.1891H28.5961C16.4529 42.1891 9.52658 33.8642 9.23798 20.0115Z" fill="black"/>
</g>
</mask>
<g mask="url(#mask0_23_334)">
<rect x="-29.4849" y="-12.0127" width="129.988" height="102.753" fill="url(#paint0_linear_23_334)"/>
</g>
<defs>
<linearGradient id="paint0_linear_23_334" x1="35.5089" y1="-12.0127" x2="35.5089" y2="90.7405" gradientUnits="userSpaceOnUse">
<stop stop-color="white"/>
<stop offset="1" stop-color="#CBDEEF" stop-opacity="0"/>
</linearGradient>
<clipPath id="clip0_23_334">
<rect width="53.2794" height="60.8908" fill="white" transform="translate(0.24707)"/>
</clipPath>
</defs>
</svg>
